<?xml version="1.0" encoding="UTF-8"?>
<svg version="1.1" xmlns="http://www.w3.org/2000/svg" width="512" height="512">
<path d="M0 0 C168.96 0 337.92 0 512 0 C512 168.96 512 337.92 512 512 C343.04 512 174.08 512 0 512 C0 343.04 0 174.08 0 0 Z " fill="#2994F5" transform="translate(0,0)"/>
<path d="M0 0 C6.55968074 -0.69783838 10.66761742 1.22136338 16 5 C21.952144 9.89857106 26.9325517 15.87747801 30 23 C30.38976901 27.06905407 29.62653626 29.16326494 27.40625 32.55078125 C25.06795539 36.25604726 22.88903974 39.97994921 20.84375 43.85546875 C20.30363281 44.87817871 19.76351562 45.90088867 19.20703125 46.95458984 C18.36205078 48.55488037 18.36205078 48.55488037 17.5 50.1875 C-8.37507338 98.60671381 -42.61357788 144.9439409 -87 178 C-87.82371094 178.62003906 -88.64742187 179.24007812 -89.49609375 179.87890625 C-94.71853202 183.67464132 -100.20869968 187.00874852 -105.75 190.3125 C-106.4716333 190.74570557 -107.1932666 191.17891113 -107.93676758 191.62524414 C-111.87065991 193.93332791 -115.58021889 195.74216921 -120 197 C-120 195.68 -120 194.36 -120 193 C-117.88123497 190.89016235 -115.81857789 189.05098876 -113.5 187.1875 C-112.20037025 186.10955653 -110.90088995 185.03143284 -109.6015625 183.953125 C-108.97411133 183.43943359 -108.34666016 182.92574219 -107.70019531 182.39648438 C-93.53331794 170.76027838 -79.83859089 158.00692228 -68 144 C-67.19175781 143.06929687 -66.38351563 142.13859375 -65.55078125 141.1796875 C-48.23053602 121.14902221 -33.80464243 99.14910241 -21 76 C-20.5167627 75.13068848 -20.03352539 74.26137695 -19.53564453 73.36572266 C-2.83922191 45.12799295 -2.83922191 45.12799295 3 14 C2.02936517 11.65429915 1.03101947 9.31979381 0 7 C-0.1875 3.0625 -0.1875 3.0625 0 0 Z " fill="#FBFCFE" transform="translate(318,158)"/>
<path d="M0 0 C4.0358161 0.5889076 6.88921159 1.87471846 10.38671875 3.94921875 C11.40830078 4.55056641 12.42988281 5.15191406 13.48242188 5.77148438 C14.54009766 6.40376953 15.59777344 7.03605469 16.6875 7.6875 C17.72583984 8.30044922 18.76417969 8.91339844 19.83398438 9.54492188 C21.90298328 10.76816073 23.96670297 12.00037529 26.02490234 13.24169922 C27.93292456 14.36935194 29.86460863 15.45840261 31.82275391 16.49658203 C38.05198531 19.87618543 41.05538598 23.0805158 44 29.5 C44.36738281 30.23347656 44.73476562 30.96695313 45.11328125 31.72265625 C48.00404428 37.59878911 50.28469914 43.04309346 50.3125 49.6875 C50.32925781 50.61949219 50.34601563 51.55148438 50.36328125 52.51171875 C50 55 50 55 48.703125 56.81640625 C46.27156045 58.50623207 44.16863462 58.37118253 41.31640625 57.8984375 C30.06154644 53.53314617 21.90401191 39.6718989 15.6875 30 C15.03394531 28.98776367 14.38039062 27.97552734 13.70703125 26.93261719 C11.79565646 23.96073158 9.8953434 20.98212993 8 18 C7.47744629 17.18080078 6.95489258 16.36160156 6.41650391 15.51757812 C5.09682814 13.43677653 3.79386256 11.34692221 2.5 9.25 C2.12061279 8.64929688 1.74122559 8.04859375 1.3503418 7.4296875 C0.34375 5.765625 0.34375 5.765625 -1 3 C-0.67 2.01 -0.34 1.02 0 0 Z " fill="#FBFCFE" transform="translate(165,180)"/>
</svg>
